{
  "schemaVersion": 1,
  "generator": {
    "ffprobe": "ffprobe version 7.1.1-7.1 Copyright (c) 2007-2025 the FFmpeg developers",
    "ffmpeg": "ffmpeg version 7.1.1-7.1 Copyright (c) 2000-2025 the FFmpeg developers"
  },
  "input": {
    "file": "tests/test.ts",
    "size": 5040468,
    "sha256": "d9680cb271379a5c84c99a394cc7ff210c89085b069bea4c0f49ab2163ccd84c"
  },
  "expected": {
    "format": {
      "name": "mpegts",
      "longName": "MPEG-TS (MPEG-2 Transport Stream)",
      "startTimeSeconds": 2057.057578,
      "durationSeconds": 4.734756,
      "size": 5040468,
      "bitrate": 8516541,
      "probeScore": 50,
      "tags": {}
    },
    "streamCount": 2,
    "programCount": 1,
    "streams": [
      {
        "index": 0,
        "id": "0x100",
        "kind": "audio",
        "codec": "aac",
        "profile": "LC",
        "timeBase": "1/90000",
        "startTimeSeconds": 2057.084611,
        "durationSeconds": 4.690367,
        "bitrate": 98421,
        "frameCount": 202,
        "packetCount": 202,
        "width": null,
        "height": null,
        "pixelFormat": null,
        "frameRate": "0/0",
        "sampleRate": 44100,
        "channels": 1,
        "channelLayout": "mono",
        "bitsPerSample": 0,
        "extradataSize": null,
        "tags": {}
      },
      {
        "index": 1,
        "id": "0x101",
        "kind": "video",
        "codec": "h264",
        "profile": "Constrained Baseline",
        "timeBase": "1/90000",
        "startTimeSeconds": 2057.057578,
        "durationSeconds": 4.734756,
        "bitrate": null,
        "frameCount": 121,
        "packetCount": 121,
        "width": 1920,
        "height": 1080,
        "pixelFormat": "yuv420p",
        "frameRate": "0/0",
        "sampleRate": null,
        "channels": null,
        "channelLayout": null,
        "bitsPerSample": null,
        "extradataSize": 32,
        "tags": {}
      }
    ]
  },
  "probe": {
    "exitCode": 0,
    "warnings": [],
    "data": {
      "programs": [
        {
          "program_id": 1,
          "program_num": 1,
          "nb_streams": 2,
          "pmt_pid": 4096,
          "pcr_pid": 257,
          "tags": {
            "service_name": "Service01",
            "service_provider": "FFmpeg"
          },
          "streams": [
            {
              "index": 0,
              "codec_name": "aac",
              "codec_long_name": "AAC (Advanced Audio Coding)",
              "profile": "LC",
              "codec_type": "audio",
              "codec_tag_string": "[15][0][0][0]",
              "codec_tag": "0x000f",
              "sample_fmt": "fltp",
              "sample_rate": "44100",
              "channels": 1,
              "channel_layout": "mono",
              "bits_per_sample": 0,
              "initial_padding": 0,
              "ts_id": "1",
              "ts_packetsize": "188",
              "id": "0x100",
              "r_frame_rate": "0/0",
              "avg_frame_rate": "0/0",
              "time_base": "1/90000",
              "start_pts": 185137615,
              "start_time": "2057.084611",
              "duration_ts": 422133,
              "duration": "4.690367",
              "bit_rate": "98421",
              "nb_read_frames": "202",
              "nb_read_packets": "202",
              "disposition": {
                "default": 0,
                "dub": 0,
                "original": 0,
                "comment": 0,
                "lyrics": 0,
                "karaoke": 0,
                "forced": 0,
                "hearing_impaired": 0,
                "visual_impaired": 0,
                "clean_effects": 0,
                "attached_pic": 0,
                "timed_thumbnails": 0,
                "non_diegetic": 0,
                "captions": 0,
                "descriptions": 0,
                "metadata": 0,
                "dependent": 0,
                "still_image": 0,
                "multilayer": 0
              }
            },
            {
              "index": 1,
              "codec_name": "h264",
              "codec_long_name": "H.264 / AVC / MPEG-4 AVC / MPEG-4 part 10",
              "profile": "Constrained Baseline",
              "codec_type": "video",
              "codec_tag_string": "[27][0][0][0]",
              "codec_tag": "0x001b",
              "width": 1920,
              "height": 1080,
              "coded_width": 1920,
              "coded_height": 1088,
              "closed_captions": 0,
              "film_grain": 0,
              "has_b_frames": 0,
              "pix_fmt": "yuv420p",
              "level": 41,
              "chroma_location": "left",
              "field_order": "progressive",
              "refs": 1,
              "is_avc": "false",
              "nal_length_size": "0",
              "ts_id": "1",
              "ts_packetsize": "188",
              "id": "0x101",
              "r_frame_rate": "307/12",
              "avg_frame_rate": "0/0",
              "time_base": "1/90000",
              "start_pts": 185135182,
              "start_time": "2057.057578",
              "duration_ts": 426128,
              "duration": "4.734756",
              "bits_per_raw_sample": "8",
              "nb_read_frames": "121",
              "nb_read_packets": "121",
              "extradata_size": 32,
              "disposition": {
                "default": 0,
                "dub": 0,
                "original": 0,
                "comment": 0,
                "lyrics": 0,
                "karaoke": 0,
                "forced": 0,
                "hearing_impaired": 0,
                "visual_impaired": 0,
                "clean_effects": 0,
                "attached_pic": 0,
                "timed_thumbnails": 0,
                "non_diegetic": 0,
                "captions": 0,
                "descriptions": 0,
                "metadata": 0,
                "dependent": 0,
                "still_image": 0,
                "multilayer": 0
              }
            }
          ]
        }
      ],
      "streams": [
        {
          "index": 0,
          "codec_name": "aac",
          "codec_long_name": "AAC (Advanced Audio Coding)",
          "profile": "LC",
          "codec_type": "audio",
          "codec_tag_string": "[15][0][0][0]",
          "codec_tag": "0x000f",
          "sample_fmt": "fltp",
          "sample_rate": "44100",
          "channels": 1,
          "channel_layout": "mono",
          "bits_per_sample": 0,
          "initial_padding": 0,
          "ts_id": "1",
          "ts_packetsize": "188",
          "id": "0x100",
          "r_frame_rate": "0/0",
          "avg_frame_rate": "0/0",
          "time_base": "1/90000",
          "start_pts": 185137615,
          "start_time": "2057.084611",
          "duration_ts": 422133,
          "duration": "4.690367",
          "bit_rate": "98421",
          "nb_read_frames": "202",
          "nb_read_packets": "202",
          "disposition": {
            "default": 0,
            "dub": 0,
            "original": 0,
            "comment": 0,
            "lyrics": 0,
            "karaoke": 0,
            "forced": 0,
            "hearing_impaired": 0,
            "visual_impaired": 0,
            "clean_effects": 0,
            "attached_pic": 0,
            "timed_thumbnails": 0,
            "non_diegetic": 0,
            "captions": 0,
            "descriptions": 0,
            "metadata": 0,
            "dependent": 0,
            "still_image": 0,
            "multilayer": 0
          }
        },
        {
          "index": 1,
          "codec_name": "h264",
          "codec_long_name": "H.264 / AVC / MPEG-4 AVC / MPEG-4 part 10",
          "profile": "Constrained Baseline",
          "codec_type": "video",
          "codec_tag_string": "[27][0][0][0]",
          "codec_tag": "0x001b",
          "width": 1920,
          "height": 1080,
          "coded_width": 1920,
          "coded_height": 1088,
          "closed_captions": 0,
          "film_grain": 0,
          "has_b_frames": 0,
          "pix_fmt": "yuv420p",
          "level": 41,
          "chroma_location": "left",
          "field_order": "progressive",
          "refs": 1,
          "is_avc": "false",
          "nal_length_size": "0",
          "ts_id": "1",
          "ts_packetsize": "188",
          "id": "0x101",
          "r_frame_rate": "307/12",
          "avg_frame_rate": "0/0",
          "time_base": "1/90000",
          "start_pts": 185135182,
          "start_time": "2057.057578",
          "duration_ts": 426128,
          "duration": "4.734756",
          "bits_per_raw_sample": "8",
          "nb_read_frames": "121",
          "nb_read_packets": "121",
          "extradata_size": 32,
          "disposition": {
            "default": 0,
            "dub": 0,
            "original": 0,
            "comment": 0,
            "lyrics": 0,
            "karaoke": 0,
            "forced": 0,
            "hearing_impaired": 0,
            "visual_impaired": 0,
            "clean_effects": 0,
            "attached_pic": 0,
            "timed_thumbnails": 0,
            "non_diegetic": 0,
            "captions": 0,
            "descriptions": 0,
            "metadata": 0,
            "dependent": 0,
            "still_image": 0,
            "multilayer": 0
          }
        }
      ],
      "chapters": [],
      "format": {
        "filename": "tests/test.ts",
        "nb_streams": 2,
        "nb_programs": 1,
        "nb_stream_groups": 0,
        "format_name": "mpegts",
        "format_long_name": "MPEG-TS (MPEG-2 Transport Stream)",
        "start_time": "2057.057578",
        "duration": "4.734756",
        "size": "5040468",
        "bit_rate": "8516541",
        "probe_score": 50
      }
    }
  },
  "decodeValidation": {
    "exitCode": 0,
    "warnings": []
  }
}
